<svg width="145" height="57" viewBox="0 0 145 57" fill="none" xmlns="http://www.w3.org/2000/svg">
<rect x="1" y="1" width="143" height="55" rx="21.5" stroke="#3F41A6" stroke-width="2"/>
<path d="M129 27.268C130.333 28.0378 130.333 29.9622 129 30.732L108 42.8564C106.667 43.6262 105 42.664 105 41.1244V16.8756C105 15.336 106.667 14.3738 108 15.1436L129 27.268Z" fill="#3F41A6"/>
<path d="M25.464 30.626V35H27.984V30.626L32.232 22.436H29.424L26.742 28.178L24.042 22.436H21.198L25.464 30.626ZM43.3154 30.014C43.3154 26.864 41.0654 24.866 38.1854 24.866C35.3054 24.866 33.0554 26.864 33.0554 30.014C33.0554 33.146 35.2334 35.162 38.1134 35.162C41.0114 35.162 43.3154 33.146 43.3154 30.014ZM35.6114 30.014C35.6114 28.016 36.8174 27.062 38.1494 27.062C39.4814 27.062 40.7234 28.016 40.7234 30.014C40.7234 31.994 39.4454 32.966 38.1134 32.966C36.7634 32.966 35.6114 31.994 35.6114 30.014ZM54.5779 25.028H52.0399V30.518C52.0399 32.12 51.1759 32.984 49.8079 32.984C48.4759 32.984 47.5939 32.12 47.5939 30.518V25.028H45.0739V30.878C45.0739 33.614 46.7479 35.126 49.0699 35.126C50.3119 35.126 51.4099 34.586 52.0399 33.74V35H54.5779V25.028ZM57.4603 31.904C57.4603 34.19 58.7383 35 60.6463 35H62.2303V32.876H61.0603C60.2683 32.876 59.9983 32.588 59.9983 31.922V27.098H62.2303V25.028H59.9983V22.562H57.4603V25.028H56.2723V27.098H57.4603V31.904ZM73.4568 25.028H70.9188V30.518C70.9188 32.12 70.0548 32.984 68.6868 32.984C67.3548 32.984 66.4728 32.12 66.4728 30.518V25.028H63.9528V30.878C63.9528 33.614 65.6268 35.126 67.9488 35.126C69.1908 35.126 70.2888 34.586 70.9188 33.74V35H73.4568V25.028ZM78.4632 26.486V21.68H75.9432V35H78.4632V33.578C79.0752 34.442 80.1912 35.162 81.7572 35.162C84.3132 35.162 86.3112 33.092 86.3112 29.978C86.3112 26.864 84.3132 24.866 81.7572 24.866C80.2452 24.866 79.0752 25.568 78.4632 26.486ZM83.7372 29.978C83.7372 31.868 82.4592 32.948 81.0912 32.948C79.7412 32.948 78.4632 31.904 78.4632 30.014C78.4632 28.124 79.7412 27.08 81.0912 27.08C82.4592 27.08 83.7372 28.088 83.7372 29.978ZM92.4264 26.936C93.7224 26.936 94.7664 27.764 94.8024 29.078H90.0684C90.2664 27.71 91.2204 26.936 92.4264 26.936ZM97.1604 31.868H94.4424C94.1184 32.534 93.5244 33.074 92.4444 33.074C91.1844 33.074 90.1764 32.246 90.0504 30.77H97.3404C97.3944 30.446 97.4124 30.122 97.4124 29.798C97.4124 26.828 95.3784 24.866 92.4984 24.866C89.5464 24.866 87.4944 26.864 87.4944 30.014C87.4944 33.146 89.6004 35.162 92.4984 35.162C94.9644 35.162 96.6204 33.704 97.1604 31.868Z" fill="#3F41A6"/>
</svg>
